<svg xmlns="http://www.w3.org/2000/svg" viewBox="0 0 700 700"><defs><clipPath id="a"><path fill="none" d="M0 0h700v700H0z"/></clipPath><clipPath id="b"><path d="M340 263.1a53 53 0 01-5-4.7c-1.7-2-4.3-5.5-11.5-4.6a18.7 18.7 0 00-11.4 5.9 47 47 0 017.6 1.3 70.5 70.5 0 0014.2 2c2.6-.1 6.2 1.2 6.1.1z" fill="#eae7e5"/></clipPath><clipPath id="c"><path d="M386.2 267.6s5.4-8 13.2-7.3 14.3 7.7 14.3 7.7-9 .4-14.4.2-8.9-1-9.8-1-2.5 1.3-3.3.4z" fill="#eae7e5"/></clipPath></defs><path fill="none" d="M0 0h700v700H0z"/><g clip-path="url(#a)"><path fill="#fff" d="M464.6 446.4l-32.5-31-78.2 44h-30.8L275.8 444 255 703.5l45.7 82.8 157-248.4 6.9-91.5z"/><path d="M297 417.1s-.9-12.7-1.7-17.3-1.5-15.8-1.2-17.5c0 0-10.9-20.1-12.6-26.4a108.4 108.4 0 01-2.6-13.8s-5.5 2.3-7.8-3.2-7.7-21.6-6.9-26.7 0-15-.3-18.7-.5-31-.2-33.4 4-8 8.6-3.1c0 0 7.7-65.3 13.2-74.5s24.2-32.8 32.5-36.2 79.6-10 101.8-1.5 43 30.5 46.5 41.4 3.8 86 3.8 86 7.2-6.9 10.3 0-1.1 20.5-1.1 24.8-5.5 21.5-5.8 25.6-5.7 19.2-12.3 25.2-10.1 8.4-18.1 5.8c0 0-6 17-8.4 19.6-.8 3.4-2.6 18-3.7 23.8s0 18.4-15.3 27-34.5 39.7-34.5 39.7l-44.2 9.2-34.2-25.6-5.8-16.7z" fill="#fdd68b"/><path d="M343.9 261.6s-8.7-5-10.6-5.8-12-.6-14.5-.2-7.7 5-10.5 5.6c1.3-3.2 4-6.9 6.2-8s13.2-.9 16.4-.4 13 8.8 13 8.8z" fill="#e4985c"/><path d="M308.3 261.2s-.2 3.9-3.7 3.7a12.7 12.7 0 01-6.5-2.8s3.3 4.3 8 4.7c0 0-11.4 5-14.2 9.3 0 0 14.4-8.2 17-8.6s3.5-9.5 3.5-9.5zM318.8 274.6s-13.8 1.5-20.9 11c0 0 6.3-10.6 21-11zM313 271.3s-13.8 1.5-21 11c.1 0 6.4-10.5 21-11z" fill="#e4985c"/><path d="M367.8 220.5s-5 13.3-4.3 16.3-.7 4.8-1.7 8.7-2.2 9-4.8 9-7.3-2.3-8.2-1.3 4.3 7.2 3.2 8-3 1.3-4.3 2.4-11-10.1-14.4-11.9-13.2-5.6-18.3-5.6-11 10.8-12.3 10.2-5.2-5-5.2-5l4.3 2.3s-2.6-3.8-1.7-6.9 9.5-11.2 11.8-11.8a15.9 15.9 0 015.4-.2 26.5 26.5 0 00-4.3.9s5.3-.9 7-1a33 33 0 00-4.4 1.1s6-1.1 7.6-1.1l-5.7 1.5s14.6 3.5 16 4.7c0 0-5.5-3.3-6.4-3.4 0 0 6.2 1.4 7.8 2.6a29.1 29.1 0 005 2.6c1.9.8 2.8-6.5 6-6.6 0 0-2.9 5.1-2.8 6.9s5-2 8-1.5 3.9-.6 5.6-1.3 11-19.6 11-19.6zM377.5 235.6s-7.1 20.4-6.7 23 3.2 8 4.5 8.6 10.8 1.1 10.8 1.1 5.6-7.7 10.6-7.7c3.7 0 .6 5.4 4.8 7.5 3.2 1.5 12.4.2 12.8.7 1.3 1.9 3.5 2.8 3.5 5s1.3 2 8.6 5.3c10.2 4.5 10.8 3.2 10.8 3.2s-15.4-5.3-16.3-6.8c-1.2-2-4-8.3-4.6-9.8s-10.3-9.5-15.7-11.2c0 0 7 .9 10.5 3 0 0-2-3-3.6-3.9 0 0 12.5 9.5 15.5 10.4a8.2 8.2 0 004.7.2 32 32 0 00-9.7-10.8s6.3 2.4 7.8 5.6a21.2 21.2 0 00-9.7-9c-7.1-3.5-23.5-7.4-29.3-7s-7.8-1.4-7.8-2.7-1.5-4.8-1.5-4.8z" fill="#e4985c"/><path d="M437 268.5s-15 8.7-17.7 4.4c0 0-.2 4.5 6 3s11.7-7.4 11.7-7.4z" fill="#e4985c"/><path d="M433.3 265.2s-7.4 6.9-10.2 6.8-3.2-1.8-3.2-1.8 1.6 1.5 3.3 1 10-6 10-6zM378 317.3s.8-6-3.7-6.7-13.2 4.3-14 2.1-2.6-6.4-8.2-6.4-4.6 2.6-7.8 2-7-3.4-8.4 0c-1.5 3.6-2 5.7 2.6 6.2s8.2.7 11.4 2.9a16.3 16.3 0 0012.1 2.2c4.5-.8 9 .4 12.3 0 2.6-.2 6.9-1.5 8.6-4.6s1-12.3-3.3-15c0 0 3.7 6.2 2.9 10.8-1.1 6.2-3.7 6.2-4.6 6.5z" fill="#e4985c"/><path d="M340 263.1a53 53 0 01-5-4.7c-1.7-2-4.3-5.5-11.5-4.6a18.7 18.7 0 00-11.4 5.9 47 47 0 017.6 1.3 70.5 70.5 0 0014.2 2c2.6-.1 6.2 1.2 6.1.1z" fill="#eae7e5"/><g clip-path="url(#b)"><circle cx="324.2" cy="257.3" r="7.2" fill="#022938"/></g><path d="M386.2 267.6s5.4-8 13.2-7.3 14.3 7.7 14.3 7.7-9 .4-14.4.2-8.9-1-9.8-1-2.5 1.3-3.3.4z" fill="#eae7e5"/><g clip-path="url(#c)"><circle cx="399.7" cy="264.2" r="7.2" fill="#022938"/></g><path d="M359.8 316.2c0-1.4 2.4-.7 4-1.6s7.5-4.9 9.5-1 0 5.2-4 4-9.5-.4-9.5-1.4zM348.3 313.2a33.6 33.6 0 01-4.5-2.3c-3.2-2-6.8 2.3-3.1 2.7l6.6.8c1.4 0 1-1.2 1-1.2z" fill="#022938"/><path d="M342.6 294.6a13.6 13.6 0 01-3.2 6c-2.6 2.8-4.6 4.7-4.5 6.8 0 0-18.6 9.8-22 17.1s-1.5-8.3.8-11.8 18.4-17.2 23-18.8 4.7-2.4 6.3-2.3-.4 3-.4 3zM380.8 296.2c7 5.3 14 13.7 16.7 21.1 3.6 10.6 4.1 14.3 4.1 14.3s-14-16.3-16.3-16.7l-2.3-.4s1-11-3.5-14.6.5-4.3 1.3-3.7z" fill="#e4985c"/><path fill="#eae7e5" d="M373.8 350l-3 7.4-16-.5-17.9-4.5-.6-5.4 21-.6 16.5 3.7z"/><path d="M355.6 354.4s14 0 12.6-.7a76.7 76.7 0 00-13.6-4c-5-1-15 0-15.7.4-.3.2 12.7 3.5 18.5 4.5.9.2-14-.6-14-.6l-9.9-2.9v-3.4l10.6-1.7 17.4 1.3 19.7 8-8.9 2.8z" fill="#022938"/><path d="M388.3 355.9a25.7 25.7 0 01-11.7-5.9c-5.8-5-18-8.2-22-5.8-3.2 2-3.9-1.6-6.4-2.2-5-1-24.2 7-24.2 7s8.8.2 11.2.9 1.5-2.6 14-2.2 21.8 5.2 25.2 6.5 13.9 1.7 13.9 1.7z" fill="#e4985c"/><path d="M388.3 355.9s-24.2 5.5-31.3 4.7c-15.3-1.7-33-11.6-33-11.6s10.6 0 12 1 15 4.4 20.8 4.6c6 .2 18.3.7 20.9.4s10.6.9 10.6.9zM387.6 357.8s2.4 7 4.5 8.4 5.2 6 5.2 7.8c0 0-5.2-6-6.9-7.3s-2.8-8.9-2.8-8.9z" fill="#e4985c"/><path d="M327.5 350s-7.4 1.5-11.5 3.9a18.6 18.6 0 01-7.3 2.6s13.6-7.1 15.3-7.5 3.5 1 3.5 1zM302 391.2s14.9 17.7 22.4 21.4 18.8 10.8 19.4 15.7l.9 7s-3.2-3.3-9.7-4.2-19.6-6.9-24.8-18.3a190.3 190.3 0 01-8.2-21.6z" fill="#e4985c"/><path d="M351.2 445.4s1.5-15-3.9-17.5c-19-8.6-35.1-24.4-35.1-24.4s8.2 5.4 15 5.4c2.8 0 10-5.6 14-5.6s5.4.2 5.7 2-7 2.5-7 4 9.1 5.9 25.5 4.8c7.2-.5 22-8 22-8s-10 7.7-10.1 11-.9 7.1 4.5 12c1.5 1.4-4.7 8.2-6.5 8.7s1.1-4.5.9-7.4-1.9-5.5-6-8.6c-5-3.6-10.6-6.4-13.6-3.9s-3.2 7-3.4 10.6c-.2 2.8 2.3 13.4 2.1 15.5s-2.4 3-4.1 1.4zM272.6 270s-5-10.7-6.5 5.4c0 0-1.8-17.1 3-13.3 3.2 2.6 3.4 7.8 3.4 7.8zM278.6 286.9a6.3 6.3 0 00-5.3-2c-3 .6-8.5 20.7-4 25.4s3 7.4 5.3 8.3 4.2.4 4-1.1-4.7-6.5-5-8.3-1-9.8.6-11.1 3-2.4 3.3-3.8l1-7.4z" fill="#e4985c"/><path d="M270.5 314.3s-1.6 4-.3 5 3.6 1.3 4 2.7-2.5 1.5-4.3.1-1.8-3.8-2-4.2-1.2-2.2-.4-3.4 3.5-2.4 3-.3zM473.8 280.3s2.8-3.2 4.5-1.7-2.4 17.6-2.6 21.4c0 0 .5-12.2.2-14.6s-1-5.4-2.1-5.1zM463.7 298s-6.2 7.8-6.2 9.3 2 2.2 2.1 3.2a59.5 59.5 0 01-1 10l-1.1 3s5.4-.5 7-1.4 8.5-14.6 5-18.4c-2.2-2.5-3.7-1.3-3.8-2.1s1.5-2.6.6-3.6-2.6 0-2.6 0zM458.9 332.4s-2.7 4.2-4.6 4-2.1-1.9-3.6-1.5-3.5 2.3-1 2.5 4.2 1.7 6.6.2c.7-.5 2.6-5.2 2.6-5.2zM470.3 324s-1.4 3.9-3.7 5.8-5.6 12-5.6 12 3.8-8.5 5.8-10.1 3.4-6.4 3.5-7.7zM277.7 265.6c1.5.9 1.8 13.5 3.8 23.8s3.1 16.4.8 26.2c-2 8.7-.5 22.2.6 22.2s-2.6-18.6 1.2-19c1 0 2.2 9.2 2.6 14.2.5 7.8-2.7 13.5-1.6 23.7 0 .9 3.1 13 2.7 12.8a.4.4 0 01-.2 0c-.5 0-1-.6-1.4-1.6a70.5 70.5 0 01-6.5-19.2c-2.2-10.4-2-83.1-2-83.1z" fill="#e4985c"/><path d="M332.8 253.3s0 0-1.9-.5a117.4 117.4 0 00-16.3-.3c-1.6.3-5 6-5 6s5-5 6-5l17.1-.2zM386 262s6-5.3 10-5 12.2 6.3 12.2 6.3-10.1-4.3-12-4.3-10.2 3-10.2 3zM417.6 268.2a20.2 20.2 0 00-2-3.8c-1-1.1-13-5.3-13-5.3a109.8 109.8 0 0111.8 5.9 22.5 22.5 0 013.2 3.2z" fill="#022938"/><path d="M445 346s-1.7 7.3-3 10.7-5.7 16-7.6 17.4-16.1 14.8-16.1 14.8 15.9-18.6 18.3-22.3a80.6 80.6 0 008.4-20.5zM357.4 381.6s-5.7-7.6-21.6-4.7a18.2 18.2 0 014.4-8.6c3.6-4.1 17-.8 20.7 2.2s6.2 8.9 5.2 10-6.5 2.4-8.7 1zM334.8 162.4s-11.2 8.7-13 11.3 11.7-6 12.1-5.6c1.8 1.5-10.7 8.8-11.6 10.3s10.9-5.3 11.4-5c1.7 1.3-9.5 7.3-11.2 10s5-1.4 6.7-1.8-13.1 9.7-17.7 14c-4.3 4.1 2.6-8 5.2-10s-6.3 6-8.4 4.6c-1.3-.9 5-5.6 9.7-9s-9.3 6.4-10 5.8c-1.4-1.5 5.7-7.8 7.8-9.3s-20.8 9-31.5 44.1c-2.7 9 10.1-43.9 13.6-52.5 5.4-13 10.8-13 14.7-14.5 11-3.8 45.3-5.1 39-4a66.5 66.5 0 00-22.4 8.7c-8.8 5.2-13.3 9.4-11.7 9.2 2.6-.4 15.8-8.2 17.3-6.3zM388.6 272.5s14.2 4 18.4 4a15 15 0 007.3-2s-2.3 5.2-12.4 3.4-13.3-5.4-13.3-5.4zM328.5 268.3s-10.4-.8-16.3-2.6c0 0 6 5 16.3 2.6z" fill="#e4985c"/><path fill="#eee" d="M355.7 460.2l-20.5-.4v12l29.1-3.4-8.6-8.2z"/><path d="M337.5 498.5s2.3 2.8 0 12.6-18 64.5-21.3 77.6C293 682.7 302.4 763 302.4 763L362 644s.8-55.5 2-74.8-.3-55.7-1.8-61.5l-3.7-13.5-10.3-5.2-8 2z" fill="#004096"/><path d="M350.8 602.5s-7.8 45.7-10 62.1-7.3 37.1-7.3 37.1 17.7-27.6 17.7-31.5-1.3-28.9 0-43 2.1-32-.4-24.7zM355.6 551.6s1.5-43.3 1.7-45.8 5.3-5.3 4-7.3c-2.7-4.3-13.1-7-13.1-7s-7.4-1.8-6.2-.9c8.2 6.2 12.6 6.8 12 25.1-.5 9.8 1.6 36 1.6 36z" fill="#03346b"/><path d="M360.5 501s-4.3-9.1-15-9.1a13.7 13.7 0 00-8 6.6s-2.9-4-2.6-7.8a15.9 15.9 0 01-5.1-6.3c-2-4.3-4.4-10.4-4.4-10.4l11-11.5 26.7 4s5.2 7 3.5 13-2.3 8.3-5 9.5c0 0 1.8 10.5-1 12z" fill="#004096"/><path d="M360 466.3s8.5 11 4 19.8c0 0 5.2-7.5 5.2-10s-9.2-9.8-9.2-9.8z" fill="#03346b"/><path d="M431.3 396.7s-3 4.9-3 8.3-3 10.7-6.8 12.7-43.7 26.7-46.3 28.1-17.8 13-21.3 13.6 3.2 4 7.8 9.2 30.5 47.4 31.9 48 44-72.2 45.1-84.8-5.1-31.7-7.4-35.1z" fill="#fff"/><path data-name="collar" d="M296.4 407s-.6 9 1.7 13 13.6 16.6 17.6 21.8c4.6 6 26.7 18.4 26.7 18.4s-14 9.5-23 22.1-27 32.8-28.4 32.8-8.1-57.5-5.8-69.3 7.2-36.5 11.2-38.8z" fill="#fff"/><path d="M436.6 411.5s13 9 16 18.5c11.2 8.7 19.8 13 27.6 18.2s22 22 22 22l-22.9 11.6 32.4 16.8S462 572 451.7 597 306 751 306 751s85.8-175.5 99.1-205.2c9.3-20.6 22.9-84.6 27.2-95s8.2-18.5 7.3-24.5-3-14.7-3-14.7zM291 420.8s-19.3 23-23.3 25.3-49.1 25.3-50.3 27 14 17.3 14 17.3-37.9 19.3-39.6 20.4 110.6 234.5 114.1 241c0 0-23.3-118.2-26.7-195-3.2-70.4 6-111.2 6.9-114.7l4.9-21.3z" fill="#020635"/><path d="M236.5 462.8s-136.2 36.4-145 42.7c-21.5 15.5-49 335.7-49 335.7l585.1 9.7s10-100.4 12-125c3.5-39.7-33.8-218.4-37-226.2s-122.5-51.5-122.5-51.5L342.6 695.7l-36.7 56z" fill="#020635"/><g><path d="M282 250s5.8-52 12.7-67.8 10.3-24.4 23-27.6 37.6-2.9 53.7 0 27.6 3.2 39.1 3.5 36.2 4 42 14.3 11.5 17.9 11 24.8-13 64.4-13 70.1 5.5 20.7 7.5 20.1 11-14.6 12-15.2 6.5-2.4 6.7-2.6c1.4-1.4 11-44.2 3.4-67.8-7.7-24.4-20-49.5-42-61.8s-84-19.6-115.5-5.2c-12 5.4-12.1 11.5-12.1 11.5s-8.3-2.4-12 1.4c-5.9 5.8-22.5 43.7-24.2 59.8s-2.6 43.7-2 48.9 5 11.7 6 11.5c1.5-.2 3.7-17.8 3.7-17.8z" fill="#fff"/><path d="M401.6 150.8a49.2 49.2 0 00-4.3 3.2 34.4 34.4 0 00-3.7 3.6 14 14 0 00-2.8 4.3 4.6 4.6 0 00-.2 2.4 4.6 4.6 0 001.2 2.3 4 4 0 01-1.9-2 4.9 4.9 0 010-3 11.7 11.7 0 012.7-4.9 21.6 21.6 0 014.1-3.5 17.7 17.7 0 015-2.4z" fill="#fdd68b"/><path d="M400.4 149.5a47.9 47.9 0 00-4.3 3.2 35.2 35.2 0 00-3.8 3.7 13.6 13.6 0 00-2.8 4.2 4.7 4.7 0 00-.2 2.5 4.6 4.6 0 001.2 2.2 4.1 4.1 0 01-1.8-2 5 5 0 01-.2-2.9 11.8 11.8 0 012.8-4.9 21.3 21.3 0 014.1-3.6 17.3 17.3 0 015-2.4zM387.4 148.4a46.3 46.3 0 00-4.3 3.2 34.4 34.4 0 00-3.8 3.7 13.6 13.6 0 00-2.7 4.3 4.2 4.2 0 001 4.6 4.1 4.1 0 01-1.9-2 5 5 0 01-.1-3 11.8 11.8 0 012.7-4.8 21 21 0 014.2-3.6 17.6 17.6 0 015-2.4zM328.8 137.4a47.6 47.6 0 00-5.2 1.5 33.8 33.8 0 00-4.8 2 14 14 0 00-4 3 4.8 4.8 0 00-1.1 2.2 4.6 4.6 0 00.4 2.6 4 4 0 01-1-2.6 5 5 0 01.8-2.8 11.7 11.7 0 014.3-3.6 21.6 21.6 0 015.2-2 17.8 17.8 0 015.4-.3zM330.3 145.3a50 50 0 00-5.1 1.5 35 35 0 00-4.9 2.1 13.6 13.6 0 00-4 3 4.2 4.2 0 00-.7 4.8 4 4 0 01-1-2.6 5 5 0 01.9-2.7 11.7 11.7 0 014.2-3.7 20.7 20.7 0 015.2-1.9 17.2 17.2 0 015.4-.5z" fill="#fdd68b"/><path d="M329.6 139a50 50 0 00-5.1 1.6 35 35 0 00-4.8 2 14 14 0 00-4 3.1 4.8 4.8 0 00-1.1 2.2 4.6 4.6 0 00.3 2.6 4.1 4.1 0 01-1-2.6 5 5 0 011-2.8 11.8 11.8 0 014.2-3.6 21.4 21.4 0 015.1-2 17.4 17.4 0 015.4-.4z" fill="#fdd68b"/><path d="M379 146.7a51.3 51.3 0 00-4.3 3.2 34.4 34.4 0 00-3.8 3.6 14 14 0 00-2.7 4.3 4.7 4.7 0 00-.2 2.5 4.5 4.5 0 001.2 2.2 4 4 0 01-1.9-2 5 5 0 01-.1-3 11.8 11.8 0 012.7-4.9 21.6 21.6 0 014.2-3.5 17.9 17.9 0 014.9-2.4zM314 153.8a17.5 17.5 0 01-1.8 5.2 21.3 21.3 0 01-3.1 4.5 11.8 11.8 0 01-4.6 3.3 4.9 4.9 0 01-2.9.1 4.1 4.1 0 01-2.2-1.6 4.2 4.2 0 004.7.5 13.6 13.6 0 004-3.2 34.3 34.3 0 003.2-4.2 49 49 0 002.7-4.6zM283 249.3a17.5 17.5 0 01-1.8 5.2 21.3 21.3 0 01-3.1 4.5 11.7 11.7 0 01-4.6 3.3 4.9 4.9 0 01-2.9.2 4.1 4.1 0 01-2.2-1.7 4.6 4.6 0 002.4 1 4.7 4.7 0 002.3-.5 13.8 13.8 0 004-3.2 34.3 34.3 0 003.2-4.1 47.7 47.7 0 002.7-4.7zM332 142.4a17.2 17.2 0 01-1.9 5.1 21.3 21.3 0 01-3 4.6 11.7 11.7 0 01-4.7 3.2 4.8 4.8 0 01-2.8.2 4 4 0 01-2.3-1.6 4.6 4.6 0 002.4 1 4.7 4.7 0 002.4-.5 14 14 0 004-3.2 36.4 36.4 0 003.1-4.2 49.9 49.9 0 002.7-4.6z" fill="#fff"/><path d="M311.6 153.8a17.5 17.5 0 01-1.7 5.2 21.7 21.7 0 01-3.1 4.5 11.8 11.8 0 01-4.6 3.3 4.9 4.9 0 01-3 .1 4 4 0 01-2.1-1.6 4.2 4.2 0 004.7.5 13.6 13.6 0 004-3.2 34.3 34.3 0 003.1-4.2 51.2 51.2 0 002.8-4.6zM292.9 153a17.4 17.4 0 013.7-4 21.4 21.4 0 014.7-3 11.8 11.8 0 015.5-1.1 5 5 0 012.7 1 4.1 4.1 0 011.4 2.4 4.6 4.6 0 00-1.8-1.9 4.7 4.7 0 00-2.4-.5 13.8 13.8 0 00-4.9 1.4 35.6 35.6 0 00-4.6 2.5 46 46 0 00-4.3 3.1zM380.7 144.1a49.2 49.2 0 00-4.3 3.2 36 36 0 00-3.7 3.7 13.8 13.8 0 00-2.8 4.2 4.8 4.8 0 00-.2 2.5 4.6 4.6 0 001.2 2.2 4.1 4.1 0 01-1.9-2 5 5 0 01-.1-3 11.8 11.8 0 012.7-4.8 21.6 21.6 0 014.2-3.6 17.2 17.2 0 015-2.4zM371.2 144.1a46.3 46.3 0 00-4.2 3.2 35.2 35.2 0 00-3.8 3.7 13.8 13.8 0 00-2.8 4.2 4.7 4.7 0 00-.2 2.5 4.5 4.5 0 001.2 2.2 4.1 4.1 0 01-1.9-2 5 5 0 01-.1-3 11.9 11.9 0 012.7-4.8 21.6 21.6 0 014.2-3.6 17.3 17.3 0 015-2.4zM279 250.4a47.9 47.9 0 00-2.2 4.9 36.3 36.3 0 00-1.5 5 13.6 13.6 0 00-.3 5 4.2 4.2 0 003.1 3.7 4.1 4.1 0 01-2.6-.9 5 5 0 01-1.6-2.4 11.8 11.8 0 010-5.6 21.4 21.4 0 011.9-5.2 17.7 17.7 0 013.2-4.5z" fill="#fff"/><path d="M364.6 145.8a49.2 49.2 0 00-4.3 3.2 35.2 35.2 0 00-3.8 3.7 13.8 13.8 0 00-2.8 4.3 4.8 4.8 0 00-.2 2.4 4.6 4.6 0 001.2 2.2 4 4 0 01-1.8-2 5 5 0 01-.2-2.9 11.7 11.7 0 012.8-4.9 21.6 21.6 0 014.1-3.6 17.8 17.8 0 015-2.3z" fill="#fdd68b"/><path d="M365.4 143.3a49.9 49.9 0 00-4.3 3.1 35.2 35.2 0 00-3.8 3.7 13.8 13.8 0 00-2.7 4.3 4.8 4.8 0 00-.2 2.4 4.6 4.6 0 001.2 2.2 4.1 4.1 0 01-1.9-2 5 5 0 01-.1-2.9 11.7 11.7 0 012.7-4.9 21.6 21.6 0 014.2-3.5 17.7 17.7 0 015-2.4zM405.5 148.9a49.2 49.2 0 00-4.3 3.2 35.3 35.3 0 00-3.8 3.6 13.8 13.8 0 00-2.7 4.3 4.2 4.2 0 001 4.7 4 4 0 01-1.9-2.1 5 5 0 01-.1-2.9 11.7 11.7 0 012.7-4.9 21.6 21.6 0 014.2-3.6 17.7 17.7 0 015-2.3z" fill="#fdd68b"/><path d="M362.8 141.5a46.3 46.3 0 00-4.3 3.2 34.4 34.4 0 00-3.7 3.7 13.6 13.6 0 00-2.8 4.3 4.2 4.2 0 001 4.6 4.2 4.2 0 01-1.9-2 5 5 0 010-3 12 12 0 012.6-4.8 21.3 21.3 0 014.2-3.6 17.6 17.6 0 015-2.4z" fill="#fdd68b"/><path d="M396.3 164a6.8 6.8 0 01.2-3 8.2 8.2 0 011.3-2.6 7 7 0 012.3-2 6 6 0 012.8-.8 21.5 21.5 0 00-2.2 1.7 11.4 11.4 0 00-1.8 1.9 24.3 24.3 0 00-2.6 4.8z" fill="#fff"/><path d="M394.3 164.6a6.8 6.8 0 01.2-3 8.1 8.1 0 011.4-2.6 7 7 0 012.2-2 5.8 5.8 0 012.9-.8 23 23 0 00-2.3 1.7 12.2 12.2 0 00-1.7 1.9 24 24 0 00-2.7 4.8zM382 160.9a6.8 6.8 0 01.2-3 8.2 8.2 0 011.4-2.7 7 7 0 012.2-2 6 6 0 012.9-.7 21.5 21.5 0 00-2.3 1.6 11.4 11.4 0 00-1.8 2 23.8 23.8 0 00-2.6 4.8zM400.6 162a7 7 0 01.2-3 8.2 8.2 0 011.3-2.6 6.8 6.8 0 012.3-2 6 6 0 012.9-.8 20.6 20.6 0 00-2.3 1.7 11 11 0 00-1.8 1.9 24.3 24.3 0 00-2.6 4.8z" fill="#fff"/><path d="M403.8 161.2a6.8 6.8 0 01.2-3 8.1 8.1 0 011.4-2.7 7 7 0 012.2-2 5.8 5.8 0 012.9-.7 23 23 0 00-2.3 1.6 11.7 11.7 0 00-1.8 2 23.6 23.6 0 00-2.6 4.8zM392.1 163.8a7 7 0 01.3-3 8.3 8.3 0 011.3-2.7 7 7 0 012.3-2 6 6 0 012.8-.8 19.4 19.4 0 00-2.2 1.7 11.7 11.7 0 00-1.8 2 24 24 0 00-2.7 4.8z" fill="#fff"/><path d="M322.3 142.2a47 47 0 01-4.4 3.1l-2.1 1.5a5.4 5.4 0 00-1.7 2 3.4 3.4 0 01.9-2.8 10.1 10.1 0 012.1-1.9 14.5 14.5 0 012.5-1.2 10.7 10.7 0 012.7-.7zM326.4 150.4a47.5 47.5 0 01-4.4 3.1l-2.1 1.5a5.2 5.2 0 00-1.7 2 3.4 3.4 0 011-2.8 10.1 10.1 0 012-1.8 13.7 13.7 0 012.5-1.3 10 10 0 012.7-.7z" fill="#fdd68b"/><path d="M324.2 150.2a45 45 0 01-4.4 3l-2.1 1.6a5.3 5.3 0 00-1.7 1.9 3.4 3.4 0 011-2.7 9.7 9.7 0 012.1-1.9 13 13 0 012.5-1.2 10.3 10.3 0 012.6-.7z" fill="#fdd68b"/><path d="M304.6 159.7a26.9 26.9 0 01-.7 5 34.2 34.2 0 01-1.4 5 24.5 24.5 0 01-2.3 4.5 12.5 12.5 0 01-3.6 3.8 25.2 25.2 0 002.6-4.3c.8-1.5 1.4-3 2-4.6l3.4-9.4z" fill="#fff"/><path d="M299.2 172.8a27 27 0 01-.6 5 33.7 33.7 0 01-1.5 5 24.6 24.6 0 01-2.3 4.6 12.6 12.6 0 01-3.6 3.7 25.6 25.6 0 002.7-4.2l2-4.6 3.3-9.5z" fill="#fff"/><path d="M295.6 179.3a66.7 66.7 0 01-.6 7.8c-.4 2.7-.8 5.2-1.4 7.8a56 56 0 01-2.3 7.6 24.3 24.3 0 01-3.7 7 40.2 40.2 0 002.7-7.3c.8-2.5 1.4-5 2-7.5l1.6-7.7 1.7-7.7zM284 239.2a66.7 66.7 0 01-.7 7.9c-.3 2.6-.8 5.2-1.3 7.8a58.4 58.4 0 01-2.3 7.6 24 24 0 01-3.8 6.9 39.7 39.7 0 002.8-7.3l2-7.6a352 352 0 003.2-15.3zM292.8 178.6a66.7 66.7 0 01-.6 7.9c-.4 2.6-.8 5.2-1.4 7.8a58.4 58.4 0 01-2.3 7.6 24 24 0 01-3.7 7 39.7 39.7 0 002.7-7.4c.8-2.5 1.4-5 2-7.5l1.6-7.7 1.6-7.7z" fill="#fdd68b"/><path d="M283.7 240.2a67.5 67.5 0 01-1.7 7.7c-.7 2.5-1.6 5-2.5 7.5a56.3 56.3 0 01-3.4 7.1 24.2 24.2 0 01-4.7 6.4 40.3 40.3 0 003.8-6.8l3-7.2 2.8-7.4 2.7-7.3zM287.5 217a68.7 68.7 0 01-.7 8l-1.5 7.7a57.4 57.4 0 01-2.3 7.5 24.2 24.2 0 01-4 7 39.2 39.2 0 003-7.3l2-7.6 1.7-7.6 1.8-7.6zM420.2 158a63.4 63.4 0 018.3 2.7 75.3 75.3 0 017.9 3.8 45.3 45.3 0 017.2 5 16.4 16.4 0 015.3 7 20.5 20.5 0 00-6-6.2l-3.5-2.4-3.7-2.2a154.5 154.5 0 00-15.5-7.8z" fill="#fdd68b"/><path d="M446.4 170.7a65.6 65.6 0 016.5 5.8 72.5 72.5 0 015.7 6.7 44.8 44.8 0 014.7 7.4 16.4 16.4 0 012 8.5 20.4 20.4 0 00-3-8l-2.3-3.6-2.5-3.5-5.4-6.8-5.7-6.5z" fill="#fff"/><path d="M448.4 175.8a65.5 65.5 0 016.4 5.9 75.3 75.3 0 015.8 6.6 44.8 44.8 0 014.6 7.5 16.4 16.4 0 012 8.5 20.5 20.5 0 00-3-8c-.7-1.3-1.4-2.5-2.3-3.7l-2.5-3.4c-1.7-2.3-3.5-4.6-5.4-6.8l-5.6-6.6zM465.9 170.3a65 65 0 015.5 6.7 72.1 72.1 0 014.6 7.5 44.8 44.8 0 013.5 8 16.4 16.4 0 01.7 8.7 20.4 20.4 0 00-1.7-8.3c-.5-1.4-1-2.7-1.7-4l-2-3.8a148.2 148.2 0 00-9-14.8z" fill="#fff"/><path d="M431.4 160.3a65.5 65.5 0 018.3 2.8 72.3 72.3 0 017.9 3.8 44.8 44.8 0 017.2 5c2.2 1.9 4.4 4.2 5.3 7a20.4 20.4 0 00-6-6.2l-3.5-2.4-3.7-2.2a154.8 154.8 0 00-15.5-7.8z" fill="#fdd68b"/><path d="M460.3 201.7s1 16.4 5 22M464.5 186.5s-5 15.6-3.4 22.2M274.3 237s-5 15.6-3.4 22.2" fill="#fff"/><path d="M457.7 209.9l2.1 11.1 1.1 5.5a26.9 26.9 0 001.8 5.4 14.7 14.7 0 01-2.8-5 36.8 36.8 0 01-1.4-5.6 51.7 51.7 0 01-.8-5.6 40.4 40.4 0 010-5.8zM454.5 267.7c.8 3.7 1.4 7.4 2 11.1l1.2 5.5a27.3 27.3 0 001.7 5.4 14.5 14.5 0 01-2.7-5 36 36 0 01-1.5-5.6 54 54 0 01-.7-5.7 37.5 37.5 0 010-5.7z" fill="#fdd68b"/><path d="M457 271.6c.9 3.7 1.5 7.4 2.2 11.1l1.1 5.5a27.8 27.8 0 001.7 5.3 14.7 14.7 0 01-2.7-5 37.1 37.1 0 01-1.5-5.5 51.7 51.7 0 01-.7-5.7 37.7 37.7 0 010-5.7zM458.4 206.2c.8 3.8 1.4 7.5 2 11.2l1.2 5.5a27.3 27.3 0 001.7 5.3 14.5 14.5 0 01-2.7-5 35.8 35.8 0 01-1.5-5.6 54.2 54.2 0 01-.7-5.7 39 39 0 010-5.7z" fill="#fdd68b"/><path d="M459.4 209.9s1.1 16.4 5 22M456.6 266.8s1.1 16.4 5 22" fill="#fff"/><path d="M474 252.4c1 3.7 1.5 7.4 2.2 11.1l1.1 5.5a27.1 27.1 0 001.7 5.4 14.5 14.5 0 01-2.7-5 36 36 0 01-1.5-5.6 54.2 54.2 0 01-.7-5.7 39 39 0 010-5.7z" fill="#fdd68b"/><path d="M479.7 261.6s4.3-15.8 2.4-22.4M469.8 257.8s1 16.3 5 22M470.5 257.3s-3.4 16-1.3 22.5M472.5 259.9s-3.5 16-1.3 22.5M451 269s.8 16.3 4.6 22M272.9 228.2s-4 16-2 22.5M457 267.3s2.4 16.2 6.7 21.5M477.4 250.8s-3.4 16-1.3 22.5" fill="#fff"/><path d="M315.4 155.8l-3.8 1-3.7 1a36.8 36.8 0 00-3.5 1.3 26 26 0 00-3.4 1.8 9.4 9.4 0 012.9-2.7 15.7 15.7 0 013.6-1.7 19.5 19.5 0 014-.8 15 15 0 013.9 0z" fill="#fdd68b"/><path d="M316 155.7l-3.9.4-3.8.5a35 35 0 00-3.7.8 25.2 25.2 0 00-3.6 1.3 9.4 9.4 0 013.3-2.3 16 16 0 013.8-1.2 20.4 20.4 0 014-.2 14.9 14.9 0 013.9.7z" fill="#fdd68b"/><path d="M447 159.5q-6.2.7-12.6 1t-12.6.4a97 97 0 01-6.4-.2 25.5 25.5 0 01-3.2-.4 30.1 30.1 0 01-3.2-.8 65.2 65.2 0 01-11.7-5 143 143 0 0015 4.6 26 26 0 003.2.3l6.2.1h25.4zM302.7 160.4l7.9-1.4a57.2 57.2 0 007.6-1.8 59.2 59.2 0 007.2-3.4c2.3-1.2 4.6-2.6 6.9-4a71.3 71.3 0 01-6.5 4.7 44.9 44.9 0 01-7.2 3.8 30 30 0 01-7.8 2 37.3 37.3 0 01-8 0z" fill="#fff"/></g><path d="M310.5 146.3a32.4 32.4 0 01-4.8-1.6l-4.7-1.9a6 6 0 012.7-.1 11.4 11.4 0 012.5.7 12.9 12.9 0 012.3 1.2 9.4 9.4 0 012 1.7z" fill="#fff"/></g></svg>