<svg xmlns="http://www.w3.org/2000/svg" viewBox="0 0 700 700"><defs><clipPath id="a"><path fill="none" d="M0 0h700v700H0z"/></clipPath><clipPath id="b"><path data-name="eye left" d="M391.7 251s19.4 4.4 23.9 4 10.3-1 11.8-3c0 0-.1-2.6-1.7-2.6s-13.6-3.1-34 1.6z" fill="none"/></clipPath><clipPath id="c"><path d="M317 251.1l3.3.8a34.9 34.9 0 007 .4c4.5 0 9.3.4 13.6 0a81.3 81.3 0 018.3-.6 16.3 16.3 0 002.6.2c.6-.1.7-.3.8-1 0-1.3-1.4-2.2-2.4-2.8a10.1 10.1 0 00-3.7-1.6 20.4 20.4 0 00-3 .1 20.8 20.8 0 00-3.2.5c-1.4.2-3.3.3-4.7.6-4.2 1-8.4 1.3-12.7 2l-6.2 1.3.2.1z" fill="none"/></clipPath><clipPath id="d"><path d="M350 435.7s-17.6-.7-19.9-.5-17.9 11.1-19.4 14.2 13.7 13.8 13.7 13.8-2.3 9.3-2 11.5c0 0 10-3 15.5 4.7 0 0 11.4-11.3 14.7-12.1s5.7-3.7 8.3-6.3a31.7 31.7 0 017-5s-12.4-16-17.9-20.3z" fill="none"/></clipPath></defs><path fill="none" d="M0 0h700v700H0z"/><g clip-path="url(#a)"><path data-name="face background" d="M325.8 173.4c-8.9.3-33.8 6.8-39.2 12.4s-23.6 53.5-24.4 57.3 2.8 51.2 2.8 51.2 18.9 41.5 20 45.6 7 26.8 6.7 32.4 3 22.6 3 22.6l31.8 35.3 24.6 7.4 47.6-21.6 30.7-30 7.8-14.5s4.4-19 5.4-22 2-4.7 4.6-18.9 8.9-54.9 8.9-54.9l-4.1-84-26.7-19.6-71.6-3.3-8.1 2.3z" fill="#fdd68b"/><path data-name="ear right" d="M452 281.5a10.9 10.9 0 00-2.6 6.7c0 3.8 4 7.6 2.6 10.7s-2.6 4.5-2.6 7.3-2 24.4-2 24.4a9 9 0 008.4-4.6c2.7-5 3.5-6.3 4.8-11.1s3-21.8.7-26.4-.8-9-9.3-7z" fill="#fdd68b"/><path d="M452.2 281.5c2.2-1.1 6.3-.8 7.2 1.9.7 2.3-1 6.7-1.8 8.9-1.2 3.2-3.8 7.4-3 11 .4 1.8 3.8 6.4 1 7.9-1.2.6-2.6-.7-4 0-.9.4-1.9 2-2.9 2.5.5-3 1.3-5.8 1.4-9 0-3.5.2-6.9.4-10.3a34.1 34.1 0 01.7-7c.4-1.3 1-2.4 1-3.9.5 0 1.2-2 0-2z" fill="#e4985c"/><path data-name="ear left" d="M273 283.1s2.7-11.6 0-17.5-6.5-11.7-13.4-11-12.2 5.2-13.5 10.2 8.7 37.1 9.4 41.7 2.6 17.8 12.5 20 11.7.1 12.5-5c0 0-2.4-9.2-3.9-14.2s-4.8-8.4-5.8-10.7-1.8-4.3 2.3-13.5z" fill="#fdd68b"/><path d="M391.7 251H389s8.8-5.2 17.9-5.3 17.4-2.5 20 4.1z" fill="#e4985c"/><path data-name="eye left" d="M391.7 251s19.4 4.4 23.9 4 10.3-1 11.8-3c0 0-.1-2.6-1.7-2.6s-13.6-3.1-34 1.6z" fill="#eae7e5"/><g clip-path="url(#b)"><circle cx="417.8" cy="249.7" r="6.8" fill="#022938"/></g><g data-name="face shadow"><path d="M295.2 347.4s21.3 24.9 29.7 24.1c5.6-2.5 9.4-9.4 14.2-7.3s11 9.6 21.6 10.4 20.6 1 24.6-1.6 5.6-2.2 9.4-.2 10-.3 12.7-3 9.2 0 12.2-1.3 16-23.4 15.8-39.9 5.3-39.5 5.6-42c.1-1 2.1 9.3 2.8 10.2 1.4 2.3 1.5-16.7 0-24s-4.6-13-5.1-15 16.3 25.6 15.9 28.3-7 45.8-9 53.5-12.5 31.7-18.3 37.5-17.3 16.3-24.4 20.9-16 13.7-16 13.7l13.4-16.8c3.3-4.3-6.8 5.3-9.1 6.3s-10.5.3-16.3 2.3-9.4 5.1-13 8.2S348 430 348 430s18.3-33.3 22.4-36c0 0-9.2-2.4-14.8 0s3.3-8-.2-11.2-2.3-8.2-9-9.2-9 1.8-16.4 3.3a20.1 20.1 0 01-18.6-5.3 98.2 98.2 0 01-16.2-24.2z" fill="#e4985c"/><path d="M357.4 273c-.8.5-17.3 24.1-18 28.2l6.3-4c1.8-1-14 21.8-13.7 27.6 0 0 10.7-15.3 12.7-19s7.2-10 8-11.7 3.7-8.4 4.7-11.7 0-9.4 0-9.4zM397 243.5s-2.8-4.5-2-5.2c6-5.7 10.2-3.6 15.7-4s12.7-1.2 16.3 3.2 2.4 12.8.5 14.5a31.8 31.8 0 01-3.2 2.3s2.7 5.6 4 6c1 .3 10 .8 9.1 0s-6.3-.5-8.8-2.6c0 0 9.2-.8 8.8-1.3s-6.9-2.6-8.2-3.5c0 0 7-3.6 9.5-3.8s4.4.8 5.1.5-6.3-1.7-7.5-3.4-1.4-15.4-2.8-16.9-3.3-3.6-6-3.3a13 13 0 00-4.1 1s3.3-2.2 5-2.2c0 0-4.7.5-6 1.4s-6.4.7-6.4.7 3.3-1.7 4.3-3.5l-4.2 1.7a25.9 25.9 0 002.8-3 17 17 0 01-4.8 2.8 7.4 7.4 0 002.1-2.8s-5.7 3.4-8.1 4a38.8 38.8 0 01-6 .8 24 24 0 004.3-1.4 39.2 39.2 0 00-5.2 1.2 78.5 78.5 0 01-8.6 1.9c-.8 0-1-1.8-1.3-1.6a10.2 10.2 0 00-1.2 2.6l-.5-1.5s1.2 3-1.1 3c-1 0-2 .6-3 .4-1.2-.2-1.6-1.8-1.7-2.8a24.7 24.7 0 01-.4-3.4c0-1.4-.3-2.8-.4-4.2a24.2 24.2 0 01-.3-2.6c-.2.3-.2 1-.2 1.4l-.3 2.4c0 1.5-.3 3-.5 4.6a47.9 47.9 0 00.3 9.8 77 77 0 002 11.7s11.2-4.3 13-4.9z" fill="#e4985c"/><path d="M386.9 247.2a86 86 0 0118.6-5.7c3.3-.1 16.4.7 19 2.8a7.5 7.5 0 012.5 5.5c-3-.5-1-1.8-4-3.8s-14-3.4-17.5-3.3-18.6 4.5-18.6 4.5z" fill="#e4985c"/><path d="M391.7 251c.8-.5 13-3.7 22-3.3s13.3 2.1 13.3 2.1-9-1.2-13.4-1.1-21.9 2.3-21.9 2.3z" fill="#022938"/><path d="M399.6 255s10.2 4.8 15.1 3.5a38.2 38.2 0 0010-4.5s1 1.7.8 1.7-4 5.4-10 5.6-16-6.3-16-6.3z" fill="#e4985c"/><path d="M423 245s-5.3-2.3-17.4-2.7c-3-.2-15.6 3.2-18.7 4.9 0 0 15.2-4.4 18.6-4.5s14.6 1.3 17.5 3.3a12 12 0 014 3.8 7.9 7.9 0 00-3.9-4.7" fill="#022938"/><path d="M366.3 224.7c2.5 1.7-3.1 8.9-4.7 9.7s-1.8-1-2.7-2.2a17 17 0 00-6.9-5.1c-2.2-1-5-2.5-7.4-2.6.9 0 2.5 1.2 3.1 2a18.7 18.7 0 00-5.3-1.8 5 5 0 012.2 1.8c-7.1.4-13-3.8-20-3.8 1.7-.2 4.9 1.5 6.2 2.6a21 21 0 00-7.1-1.5c1.4-.1 2.4 1 3.5 1.8-3.6.2-7.3-.5-10.8.3-3.2.7-5.9 2.8-8.3 4.8-4 3.4-5.8 8.9-8.2 13.4a20 20 0 00-2.4 6.2c3.1 2 8.6 5.6 12.6 4.1-3.6 3.5-10 3.6-14.8 4.7 3.3-.1 6.5.6 9.7.3l3.9-.5a22.6 22.6 0 01-7.8 4.7c2.2 0 4.6-1.2 6.7-2 1-.3 2.3-1.1 3.2-.7a7.8 7.8 0 011.8-5.1 19.4 19.4 0 013-3.4c-2.6-1.5-7.7-4.1-5.5-7.5 1.7-2.6 3.6-3.7 6.5-5 2.3-1.2 5-1.9 7.3-3a10.4 10.4 0 00-3.6-.4c5.9-2.5 12.7.7 18.9-.6a18.8 18.8 0 00-3.8-1c1.8-.1 3.3.7 5 1.2 2.8.8 4.3.7 6.9 2.1.4.3 1.6 6.3 1 6.6 2.3 2 3.5 4.7 6.8 4.8 1.1.1 3 .6 4 .2 1.8-1 2.4-5.8 2.6-7.6a46.3 46.3 0 01.5-5.3c.3-1.6 1.5-2 2.6-3.2 2-2 4-6.8 1.3-9zM346.5 253.4a12.7 12.7 0 00-2.8.9l-5 1.7a25.7 25.7 0 01-5.8 1.1 49.3 49.3 0 01-5.1.4c1.2 0 2.5.5 3.7.6a19.3 19.3 0 006.6-.7 40 40 0 005.2-1.9 7.7 7.7 0 003.2-2.1zM347.8 256.6a11 11 0 01-3.1 2l-4.8 2.3a31.3 31.3 0 01-10.2 3 34 34 0 01-15.3-2.4 9.7 9.7 0 011 1.3 23.3 23.3 0 002.6 2.5c2.5 2 5.8 4 9.1 4.2a20.7 20.7 0 0018.8-8.3 10.8 10.8 0 001.7-3.3c.1-.5.4-.8.2-1.3zM365 290.6a1.6 1.6 0 01-.9-.6 7.6 7.6 0 01-.7-1.5 2.5 2.5 0 00-2.6-1.2 4.5 4.5 0 00-2.6 1.6c-3 3.3-2.5 8.5-5 12 2.1.5 4.3-.3 6.3-1.2s4.1-2 6.3-1.8c3.2 0 5.9 2.3 9 2.8 3.9.8 7.8-1.2 11.7-.8 2.3.2 4.7 1.2 6.7 0-.6-.2-.8-1.1-1.3-1.6-.8-.9-2.1-.8-3.3-1a5.4 5.4 0 01-2.8-1.6 5.3 5.3 0 01-1-1.4 10 10 0 01-.2-2.4c0-.4-1.3 1.1-1.7 1.2-2 .5-10.1 1-12 .3-1.6-.7-3-2-4.6-2.5a12.8 12.8 0 01-1.4-.3z" fill="#e4985c"/><path d="M389 298.1a12.2 12.2 0 016-1.5c2 0 3 1.5 4.2 3.1 1.6 2.3 2.4 5.3 3.8 7.7a39.9 39.9 0 004.3 5.7c-.5-2-2.4-3.6-3.2-5.6-.4-1-1.2-1.8-1.6-2.9a24 24 0 00-1.3-3.9c-.5-1-.6-2.2-1.3-3.2a12.3 12.3 0 00-2.6-2.5c-1.6-1.3-3.8-1.5-4.5-3.6-1-3-2-5.2-4.6-7.1a13.8 13.8 0 01-2.2 5.3c-.7 1-1.9 1.7-2.2 2.9-.5 1.8 1.4 2.7 2.8 3.6a8.8 8.8 0 012.4 2z" fill="#e4985c"/><path d="M359.2 299.8c3.2-1.1 1.7-5.1 3-7.5 2.2-3.9 5.3.1 7.5 1.8a11.3 11.3 0 004.8 2.3 8.5 8.5 0 01-4-.3c-.9-.4-1.5-1.4-2.4-1.7-2.4-.7-4.4 1.3-5.6 3-.4.6-1.8 2.5-3.3 2.4zM378.4 296a11.8 11.8 0 003.4-2.4c1-.8 1.8-2 3-2.3 1.2 2 2.2 5.6 5 6.1-.2 1.3-2.1.7-3 .4-1-.4-1.3-1.1-2.2-1.7a7.5 7.5 0 00-3.4-.5c-.9 0-2 .9-2.8.4z" fill="#022938"/><path d="M387.4 276.6l4 7 1.6 3a11.9 11.9 0 00.8 2.3c.2-3 .6-5.4-.8-8-1-2.2-3.4-4.2-5.6-4.3zM438.7 191.2a9 9 0 014.5 4c-4.4-1.4-8.4-4-13-4.8a22 22 0 013.4 3.5c-2.3-1.2-6.3-3-8.8-2.7 1.3 2.4 2.8 4.5 4 7 1.3 2.4 3.7 4.8 3.8 7.4a3.2 3.2 0 01-2.3-.4c3.3 7 4 12.3 7 19.2 1 2.1 2.2 5.8 3.7 7.9a28.6 28.6 0 013.7 7.2c.8 2.7 2.2 5.4 2.7 8.1.5 3.4 0 4.9.6 9s1.5 7.8 2.2 12.2c-.7-1.3-3.4-2.7-4.8-3.5.2 2 2 3.7 2.7 5.6.9 2.1.3 4 .8 6a24 24 0 005 9c1.7-4.9 3-8.6 3-14.2 0-3.3.5-6.9-.3-10.1a35.9 35.9 0 01-1.6-8.8c-.1-5.7-1-11.3-.8-17 .2-4.8.8-9.6.5-14.4-.3-4.2-1.3-8.3-1.8-12.5-.6-5-1.9-13.1-6.6-16.2-2.3-1.4-6.2-3-8.9-2.6.2.5.5.6 1.3 1zM274.8 302.7c.4 4 .4 18.2 4 23.3a18.7 18.7 0 011.4 2.5c1 0 .6-.8.3-4.7-.1-3-4.5-16.3-5.7-21.1z" fill="#e4985c"/></g><path d="M340.3 241.6a52 52 0 00-7.7-.7c-3.4.2-6.7 1.3-10 2.3-2.7.9-5 2.8-7.4 4.3-.8.5-3.5 1.6-3.7 2.5s0 1 .7 1a7 7 0 003.1 0 39.7 39.7 0 006.2-4 23.7 23.7 0 017.7-3.9 33.1 33.1 0 018-1c1-.1 2.6-.6 3.1-.5z" fill="#e4985c"/><path d="M317 251.1l3.3.8a34.9 34.9 0 007 .4c4.5 0 9.3.4 13.6 0a81.3 81.3 0 018.3-.6 16.3 16.3 0 002.6.2c.6-.1.7-.3.8-1 0-1.3-1.4-2.2-2.4-2.8a10.1 10.1 0 00-3.7-1.6 20.4 20.4 0 00-3 .1 20.8 20.8 0 00-3.2.5c-1.4.2-3.3.3-4.7.6-4.2 1-8.4 1.3-12.7 2l-6.2 1.3.2.1z" fill="#eae7e5"/><path d="M350.7 244.8c-1.6-1.2-3.5-1.6-5.4-2.1a24.7 24.7 0 00-9.1-1.2 42 42 0 00-20.3 7.3 5 5 0 00-2.2 2.5c2.8-.2 3.4-1.2 5.2-2.3 2.9-1.6 5.8-3.5 9-4.6a32.9 32.9 0 019.7-1.8 23.1 23.1 0 017.1 1.4c1.6.4 4.5 2.2 6 .8-.1 0-.2-.1 0 0z" fill="#022938"/><path d="M346.2 246.5c-4-.3-7.3.6-11.2 1.2l-7.1 1.2c-2.6.3-5.1 1-7.7 1.3-1.2 0-2.3.2-3.3.3a3.8 3.8 0 00-1.6.4 5.5 5.5 0 002.2.1c1.2 0 2.3-.2 3.4-.3 2.6-.2 5-.7 7.6-1.2 4.6-.8 9-2.2 13.7-2.6l4-.4" fill="#022938"/><g clip-path="url(#c)"><circle cx="343.4" cy="248.2" r="6.8" fill="#022938"/></g><path d="M340.5 336.5c3.4-.2 7.2-1.5 10.7-2a89.1 89.1 0 0113.3-1.5c4.8 0 9.5.7 14.3 1 5.8.3 11.4-1 17-2.4 4.3-1 8.2.7 12.3 1.6a23 23 0 00-12.8 4.6c-3 2-7 6.4-10.7 6-2.3-.2-4.4-1.2-6.9-1.3a41 41 0 00-9.3.5c-2 .4-4.3 2-6.1 2.1s-4.2-2-5.8-3a32.8 32.8 0 00-9.7-4c-1.3-.2-6.1-.3-6.3-1.6z" fill="#e4985c"/><path d="M339.5 336.6s3.5-3.8 11.3-6 18-4.5 23.7-4 7.2-1 11.5-.6 17.9 4 22 7.1c0 0-16.4-5.9-22.1-6.2s-8.4.7-11.7.5-16.5 2-22.7 3.7a44.6 44.6 0 00-12 5.5z" fill="#022938"/><path d="M357.3 335.3c5.9 2.3 11.8 0 17.6-.2 5.3 0 10.7 1.3 16 0-4.7 3.8-8.8 4.3-14.6 4.3-5.6 0-10.2.4-15.6-1.5-1.4-.5-3.2-.8-3.4-2.6z" fill="#022938"/><path d="M339.5 336.5a22.3 22.3 0 014.3-4 72 72 0 018.5-4.1c3.7-1.8 7.3-3.8 11-5.4 2.1-.9 4.3-2.1 6.4-2.5 1.6-.2 1.7.2 3 1 1.3.7 2 1 3.4.2s2.8-2 4.5-1.7a25 25 0 017 2.4c3.2 1.4 6.3 3 9.4 4.6 1.8 1 4 2.3 5.4 2.9a35.4 35.4 0 015.4 3.2c-.5-.4-4.7-2.4-5.3-2.6l-2.4-1c-1.5-.7-3.1-1-4.6-1.5a32.6 32.6 0 00-13-1.8c-2.2.1-4.3.5-6.4.6a15.2 15.2 0 01-2.6.1 20.8 20.8 0 00-3.7-.3c-2.7.3-5.5 1.1-8.1 1.6a80 80 0 00-8.4 1.9c-3 .9-6.4 1.6-9.2 3-1.5.9-3 2.7-4.6 3.4zM448.8 317.8a26.6 26.6 0 013.4-1.6 25 25 0 003-1.6 5 5 0 001.6-1.5 7.7 7.7 0 001-1.8 11.5 11.5 0 01.4-1.3c-.3.8-.3 1.8-.6 2.7a6 6 0 01-1 2 22.7 22.7 0 01-4.5 2.7 14.8 14.8 0 01-3.2 1.5 3.4 3.4 0 000-1.1zM268.3 275.6a54.2 54.2 0 00-6.8-8.2c-2.3-2.1-4.7-3.8-7.7-1.7-2 1.4-3.2 4.5-3.3 6.9-.1 1.9 1.1 3.8 1.8 5.5a17.6 17.6 0 011.5 5.4c.2 1.9-.4 4.4.5 6.1a8.2 8.2 0 003.6 3.7 6.7 6.7 0 01-2.6-5c0-2.4 1-4.8.3-7.3l-1-3.6a3.7 3.7 0 01-.3-2.3c.8-2.4 4.2-2.4 6.3-2.3 2.5.3 4.7 2 7 2.5l.7.3zM256.1 298.6c-.4.6.5 2.3.7 3.1l.9 3.2a18 18 0 002.7 5.6l2 3c.2.2.6 1.1 1 1.2.8 0 1.8-2.1 1.8-2.8-1.7-.7-2.5-2.7-3.9-4a9.2 9.2 0 01-2.2-2.4c-1-2.3-1.7-4.9-3-7z" fill="#e4985c"/><path d="M268.1 279.1c1 .6 1.6 2 2.3 2.8s1.7 1.8 1.8 2.9c.2 2.6-1.4 5.7-2.6 8.1-.6 1.2-3.6 5.7-5.4 4.2-.6-.4-1-2-1.4-2.6-.5-1.1-1.2-2.2-1.8-3.2a7.8 7.8 0 01-1.2-3.9c0-2.3 2.4-3.8 4.2-5 1.2-.8 2.5-2 4.1-3.3z" fill="#e4985c"/><path data-name="hair background" d="M270.4 165.4c-6.1 12.3-11.8 23.3-15.3 37a93.6 93.6 0 00-2.6 19c-.4 6.4-2 12.8-2.7 19-.7 6.7-.7 13.1-2.2 19.4a24 24 0 019-4.1c3.1-.6 9.1 2 10.8-.8.7-1.3-.2-5.1 0-6.7.2-2.2.8-4.4 1.1-6.6.6-4.2.9-8.6 1.5-12.6a102.6 102.6 0 0113-35.8c4.6-7.6 18-11.8 26.3-14.2 8.8-2.6 19.6-2.6 28.7-2.6 17.3 0 33.8-2.6 51-5 3.8-.5 8-1.3 11.8-.5 6 1.2 11 4.1 17.2 4.3s11.9-.1 16.7 4.2c1.7 1.6 2.8 4.1 4.9 5.4 3.5 2.2 9.3 2.5 13.3 2.6 8 .2 14.4.3 16.8-8.1 1.2-4.3 3-16.3-2.7-22.4-6.4-6.8-27.8-12.1-36.4-16-11.2-5-22.8-6.6-34.6-8.8-10.7-1.9-21.7-1.9-32.6-2.3-13.4-.5-26.9-1-40.3-.3-16.3 1-51 5.3-44.3 28.2.5 1.7.6 3.5 2.5 4.2-3.8 1.4-8.4 1.3-11 3.5z" fill="#fff"/><path d="M382.4 253a15 15 0 00-1.5 5.7 14.4 14.4 0 001.4 6.9c1 2.4 2.7 6.6 5 7.8-.2-1.2-1.7-2.4-2.2-3.6a15 15 0 01-1.2-5.6v-6.7c.1-1.8.5-3.8-.3-5.4a1.3 1.3 0 00-.8.4c0 .3.1 0-.4.5z" fill="#e4985c"/><path data-name="hair background" d="M447.2 187.5c1.5 6.2 3.6 11.8 4.7 18.2 1.2 7.4 1 14.7 1 22.5 0 8.4 0 17.4 1.2 25.2 1.1 6.7 3.3 11 3 18-.1 4.5-3.2 5.7-1.9 9.6.8 2 4 8.5 6.8 8.5-.2-3.2 3-6.5 4-9.8a50.3 50.3 0 001-15.3c-.5-9.2-2.2-18.4-2.3-27.8 0-9.9-.4-19.6-.4-29.5 0-5.6-.7-13.7-4.7-17.7-2-2-13-6.6-12.4-2z" fill="#fff"/><path d="M307.4 133.7c14.1-2.5 28.3-4.7 42.7-5.8a216.5 216.5 0 0143.3.4c3.6.4 7.2 1 10.7 1.6a65 65 0 0110.7 2.6 33.5 33.5 0 015 2.4l4.7 2.7a41.8 41.8 0 009.5 4.6c3.4 1 6.9 2.1 10.2 3.3l10.2 3.9a18.4 18.4 0 014.8 2.6 28.6 28.6 0 013.7 4 36.6 36.6 0 003.5 4.1 15.7 15.7 0 004.4 3 16.1 16.1 0 01-4.7-2.7 36.5 36.5 0 01-3.7-3.9 28.7 28.7 0 00-3.8-3.7 17.4 17.4 0 00-4.7-2.2c-6.8-2.3-13.6-4.5-20.5-6.3a41.3 41.3 0 01-10-4.6l-4.7-2.6a30.2 30.2 0 00-4.8-2.1 65.8 65.8 0 00-10.2-2.4c-3.6-.6-7-1.1-10.6-1.5a208.6 208.6 0 00-21.4-1.5c-7.1-.2-14.3 0-21.4.4-14.3.8-28.6 2.3-43 3.7zM329 145.6a3.6 3.6 0 001.4 1.6 13.5 13.5 0 002 1.1l4 1.7a41.8 41.8 0 014 2l3.8 2.1a115.9 115.9 0 0015.9 7.1c11 3.9 22.4 6.1 33.9 8.5a493 493 0 0017.2 3.5 166 166 0 0017.2 2.3c11.6.9 23.4 0 34.4-4a60.8 60.8 0 01-16.8 5.2 87.3 87.3 0 01-17.7 1c-11.8-.6-23.4-3-34.9-5.4-5.7-1.2-11.5-2.3-17.2-3.8a145.5 145.5 0 01-16.9-5.3 91.6 91.6 0 01-15.8-8l-3.7-2.3c-1.3-.8-2.5-1.6-3.8-2.2l-3.9-2a12.8 12.8 0 01-1.8-1.3 3.6 3.6 0 01-1.2-1.8zM276.1 157a63.4 63.4 0 0012.5 6.5 107.6 107.6 0 0013.4 4.2 183.1 183.1 0 0027.7 4.8c4.6.6 9.3 1 14 1.4s9.4.6 14 .6A210.8 210.8 0 00386 173a133.7 133.7 0 01-28.2 3.7 189.8 189.8 0 01-28.4-1.4 174.1 174.1 0 01-28-5.6 89.9 89.9 0 01-13.3-5 52.7 52.7 0 01-11.9-7.7zM286.8 171.8a34.8 34.8 0 008.8 2.3l9 1c3 .4 6 .8 9 1s6 .6 9 .7l9.1.3h27.4c-6 1-12 1.8-18.2 2.2a150.6 150.6 0 01-18.4.2l-9.2-.9-9-1.5c-3-.5-6-1-9-1.7a27.4 27.4 0 01-8.5-3.6zM286.4 179a283 283 0 0042 2.1h5.3l5.3-.1 5.3-.2 5.2-.3 21.1-1.4a202.3 202.3 0 01-20.9 3.5l-5.3.6-5.3.4-5.3.3-5.3.1a177.3 177.3 0 01-21.2-1 130.2 130.2 0 01-20.9-4zM301 182.5a13.1 13.1 0 00-3.3 3.6l-1.6 2-1.7 2q-3.4 3.7-7 7.2t-7.5 6.9a78.2 78.2 0 01-8.2 6l6.7-7.6a172.4 172.4 0 0114.5-14l3.8-3.4a10.3 10.3 0 014.4-2.7zM281 207a138 138 0 01-5.2 15 27.5 27.5 0 00-1 2.8 62 62 0 01-2.1 6.1 12.9 12.9 0 01-1.9 3 16 16 0 01-2.5 2.4 29.7 29.7 0 01-5.8 3.1c-3.9 1.8-7.9 3-11.5 5.2a22.7 22.7 0 015-4l5.5-3a34.9 34.9 0 005.2-3.4 15.8 15.8 0 002-2 11.1 11.1 0 001.4-2.4c.9-1.8 1.4-3.8 2.2-5.9a32.3 32.3 0 011.3-3l1.4-2.8c1.9-3.8 3.9-7.5 6-11.2z" fill="#fff"/><path d="M275.4 221.8a35.2 35.2 0 01-3.9 12.6 24 24 0 01-4 5.5 41.6 41.6 0 01-5 4.4 66.2 66.2 0 01-11.6 6.4c-4 1.8-8 3.4-12.1 5a102.7 102.7 0 0111-6.9c2-1 3.9-2.1 5.7-3.2a60.4 60.4 0 005.3-3.5 42.8 42.8 0 005-4 26.6 26.6 0 004-4.8 61.3 61.3 0 005.6-11.5z" fill="#fff"/><path d="M273.7 233.2a28 28 0 01-3.6 9.3 15.2 15.2 0 01-1.5 2 11.3 11.3 0 01-2 2 19.5 19.5 0 01-4.6 2.1c-3 1.2-5.9 2.6-8.9 4a65.8 65.8 0 01-9.1 3.5c2.7-2 5.3-3.8 8.1-5.5a57 57 0 018.8-4.5 24.6 24.6 0 004.3-1.8 15.2 15.2 0 003.1-3 71.3 71.3 0 005.4-8.1zM301.6 130a53.6 53.6 0 00-7.6 3.5 33.5 33.5 0 01-4 1.7l-3.9 1.5a65.3 65.3 0 00-7.5 3.2c-2.3 1.2-4.5 2.9-5.2 5v-.8a5.3 5.3 0 002.2 2.3 19.7 19.7 0 003.6 1.5c1.3.5 2.6.8 4 1.2l4 1-4.2-.1a35.4 35.4 0 01-4.2-.5 16.8 16.8 0 01-4.2-1.2 7 7 0 01-3.6-3.3l-.1-.4v-.4a8.6 8.6 0 012.7-4.1 19.1 19.1 0 013.7-2.6 47 47 0 018-3.2 123.6 123.6 0 018-2.4 29.2 29.2 0 018.3-2zM273.9 164.6a37 37 0 00-6.5 5.4c-2 2-3.8 4.2-4.5 6.8a22.4 22.4 0 00-.5 8.2 73.8 73.8 0 01.4 8.6c-.4-2.9-1-5.6-1.5-8.5a31.1 31.1 0 01-.4-4.3 17 17 0 01.6-4.4 12.3 12.3 0 012-4 16.9 16.9 0 011.5-1.7l1.6-1.5a25 25 0 017.3-4.6zM257 252.3a15.3 15.3 0 01-2.6 3.3 21.7 21.7 0 01-3.4 2.5 19.6 19.6 0 01-3.8 1.8 12.8 12.8 0 01-4.2.7 28.8 28.8 0 013.2-2.6 55.5 55.5 0 017-4.2 20.8 20.8 0 013.9-1.5z" fill="#fff"/><path d="M271.5 235.9a7.8 7.8 0 01-1 1.8l-1.3 1.6a33.4 33.4 0 01-3 3 34.6 34.6 0 01-7 4.7 33.5 33.5 0 01-8 2.9 27.3 27.3 0 01-8.3.5 44.2 44.2 0 0015.7-4.6 46.4 46.4 0 007-4.3 52 52 0 003.1-2.6l1.5-1.4a11.9 11.9 0 001.3-1.6z" fill="#fdd68b"/><path d="M275.4 236.6a54 54 0 01-11.8 8.6 36 36 0 01-13.8 4.4A75 75 0 00263 244c4.2-2.2 8.2-4.9 12.4-7.4zM273 241.6a21.6 21.6 0 01-4.5 4.3 39 39 0 01-5.3 3.3 44.8 44.8 0 01-5.8 2.4 30.4 30.4 0 01-6 1.4 211.4 211.4 0 0011.2-5l5.4-3a53.1 53.1 0 005-3.4zM270.8 245.8a7.3 7.3 0 01-2 3.4 15 15 0 01-3.3 2.5 17.7 17.7 0 01-3.7 1.6 11.4 11.4 0 01-4 .5 70.4 70.4 0 007-3.3 31 31 0 003.2-2 13.7 13.7 0 002.8-2.7zM436.5 176.8l-3.6.3-3.7.2-3.7-.1-3.6-.3a120 120 0 01-14.5-2.4c-4.8-1-9.5-2.3-14.2-3.6l-7.1-1.8-3.6-1-3.5-.8 7.2 1.1 7.2 1.5 14.3 3.3c4.7 1 9.5 2 14.3 2.7l3.6.4 3.6.3 3.7.2h3.6zM442.6 181a15.5 15.5 0 00-4.4-.3l-4.4-.1-9-.7a170.3 170.3 0 01-17.6-2.7c6 .2 11.9.7 17.8 1.3l8.8 1 4.5.5a13.1 13.1 0 014.3 1zM302 176.4a16.9 16.9 0 014.4 1l4.2 1.2a61.2 61.2 0 008.6 1.7 43.5 43.5 0 0017.5-1.2 28.4 28.4 0 01-8.6 2.6 35.7 35.7 0 01-4.5.3 42.7 42.7 0 01-4.5-.3 44.3 44.3 0 01-8.8-2 60 60 0 01-4.1-1.7 20.5 20.5 0 00-4.2-1.6zM289.4 189.4a15 15 0 01-3.7 4.7c-1.5 1.4-3.1 2.6-4.4 4s-2.6 3-4 4.5a14.1 14.1 0 01-2.4 2 4.9 4.9 0 01-3 .8 5.5 5.5 0 002.6-1.4 18.4 18.4 0 002-2.1c1.2-1.5 2.4-3.2 3.8-4.7 3-3 6.5-4.7 9.1-7.8z" fill="#fdd68b"/><path d="M283.7 196.2l-5.5 5.7-2.6 3a31 31 0 01-3 2.7 19.5 19.5 0 01-7.3 3.6 38.7 38.7 0 01-8 1c2.7-.6 5.2-1.2 7.7-2a22 22 0 006.7-3.7 32 32 0 002.9-2.6l2.8-2.7a43.7 43.7 0 016.3-5zM276.1 206.5a9.9 9.9 0 01-2 2.4 15.5 15.5 0 01-5.3 3.1 10 10 0 01-3 .6l5.2-3z" fill="#fdd68b"/><path d="M281 204.6a36.8 36.8 0 01-6.5 6.6 20.9 20.9 0 01-4 2.5 8 8 0 01-4.6.8 12.5 12.5 0 004-1.7c1.4-.8 2.6-1.7 3.8-2.6l3.6-2.9c1.2-.9 2.4-1.9 3.8-2.7z" fill="#fdd68b"/><path d="M280.3 205.4l-2.8 2.7a66 66 0 01-2.9 2.6 24 24 0 01-3.2 2.3 12.6 12.6 0 01-3.7 1.5 99.6 99.6 0 006-4.9l3.1-2.4a15.4 15.4 0 013.5-1.8zM277.6 210a31 31 0 01-2.5 2.7c-.8.9-1.7 1.7-2.7 2.5a30.8 30.8 0 01-3 2.2 17.7 17.7 0 01-3.2 1.7 45.6 45.6 0 015.3-5l3-2.2a20.7 20.7 0 013.1-1.9z" fill="#fdd68b"/><path d="M276.1 213.4a16.8 16.8 0 01-15.2 7.2l4-1.2a34.7 34.7 0 004-1.6 32.9 32.9 0 003.7-2l3.5-2.4zM283.4 153.2a26 26 0 004.9 5 20.5 20.5 0 006 3.1 47.5 47.5 0 006.8 1.7l7 1.2a63 63 0 01-7.1-.2 31.5 31.5 0 01-7-1.4l-1.8-.7-1.6-.8-1.6-1-1.4-1.1a17.4 17.4 0 01-4.3-5.8z" fill="#fdd68b"/><path d="M284.1 145.6c-.3 2.7-1.5 5.4-.3 7.7a13.9 13.9 0 005.1 5.8 24 24 0 003.5 2l3.7 1.5 7.8 2.4a40.2 40.2 0 01-8-1.4 26.6 26.6 0 01-7.7-3.4 15.8 15.8 0 01-3.2-2.8l-.7-.8-.6-1a9.5 9.5 0 01-.9-1.9 6.3 6.3 0 01-.4-2.1 7.7 7.7 0 01.4-2.2l1.3-3.8z" fill="#fdd68b"/><path d="M289 140.2a23.6 23.6 0 00-5.5 6.7 12 12 0 00-1.3 4 6.7 6.7 0 00.7 4 9.8 9.8 0 002.7 3 22 22 0 003.6 2.3 61.5 61.5 0 008.2 3.3 34.3 34.3 0 01-8.6-2.3 19.6 19.6 0 01-4-2.2 10.8 10.8 0 01-3.2-3.5 8 8 0 01-.7-4.8 12 12 0 011.6-4.3 18.4 18.4 0 016.6-6.2z" fill="#fdd68b"/><path d="M289.8 143.7c-1.2 2.2-3 4.2-4 6.4a5.7 5.7 0 00-.5 3.3 5.4 5.4 0 001.4 3c1.5 1.9 3.8 3 6.1 3.7a60 60 0 007.3 1.8 29.7 29.7 0 01-7.6-.8 13 13 0 01-6.9-3.7 6.6 6.6 0 01-1.5-3.8 6.5 6.5 0 01.8-4c1.3-2.4 3.3-4 5-6z" fill="#fdd68b"/><path d="M292.9 141l-2.4 5.7a14.7 14.7 0 00-.4 1.5 9.2 9.2 0 00-.3 1.4v1.5a9.2 9.2 0 00.2 1.4 9.6 9.6 0 003.2 4.7 52.2 52.2 0 005 3.6 21.7 21.7 0 01-5.7-2.8 12.5 12.5 0 01-2.3-2.2 7 7 0 01-1-1.4c0-.3-.2-.5-.3-.8l-.3-.8a9.9 9.9 0 01.9-6.5 24 24 0 013.4-5.3zM422 142.1a13.3 13.3 0 00-3.3 1.2l-3.4 1.3c-2.3.8-4.7 1.5-7 2.1a104.3 104.3 0 01-14.4 2.5c-4.8.5-9.7.8-14.5 1l-7.3.2-7.2.2 7.2-.9 7.2-.6c4.9-.4 9.7-.7 14.5-1.2A154.7 154.7 0 00415 144l3.5-1a11.7 11.7 0 013.6-.9z" fill="#fdd68b"/><path d="M412.5 142.5l-3.5 1.6c-1.2.6-2.3.9-3.5 1.3l-3.7 1.1-3.7 1a96 96 0 01-15 2.3 114.1 114.1 0 01-15.3 0q-3.8-.2-7.6-.7l-7.5-1.2 3.8.3 3.8.3 3.8.2h3.7c5 .2 10.1 0 15.2-.3a130 130 0 0015-1.9l3.7-.8 3.6-.9 3.7-1z" fill="#fdd68b"/><path d="M395.4 142.5a8.7 8.7 0 00-2.7.5l-2.7.7a204.5 204.5 0 01-16.5 3.4 97.1 97.1 0 01-11.2 1 65.2 65.2 0 01-11.1-.6 154.4 154.4 0 0022.1-1.8l11-1.7 5.5-1c1 0 1.9-.2 2.8-.3a7.3 7.3 0 012.8-.2zM395 145.2a176.3 176.3 0 01-19 3.4 131 131 0 01-19.1 1.1l19-2.5c6.3-.9 12.7-1.6 19.1-2z" fill="#fdd68b"/><path d="M396.1 138.7c-7 2-14.1 3.8-21.3 5.4a138.9 138.9 0 01-21.7 3.4l21.4-4.7c7.1-1.6 14.4-3.2 21.6-4.1zM280.3 166.5a25.9 25.9 0 00-8.7 10c-2.1 4-3.6 8.3-5.4 12.5a44 44 0 014.2-13.1 23.9 23.9 0 014.1-5.7 15.6 15.6 0 015.8-3.7z" fill="#fdd68b"/><path d="M283 168.8a3.6 3.6 0 00-1.5.3 6 6 0 00-1.2 1 14.3 14.3 0 01-1.3 1l-1.2 1a90.3 90.3 0 00-8.8 9.1 21.4 21.4 0 00-1.7 2.6 4.6 4.6 0 00-.9 2.8l1 .5-1.2-.3a3.2 3.2 0 01-.1-1.8 6.8 6.8 0 01.5-1.6 16.8 16.8 0 011.6-2.9 36.2 36.2 0 014.1-5 42.2 42.2 0 015-4.2 16 16 0 011.3-1c.5-.2.9-.4 1.3-.8a6 6 0 011.5-.8 3.2 3.2 0 011.6.1zM281 167.7a9.2 9.2 0 00-3.5 1 18.7 18.7 0 00-3 2.1l-2.9 2.5a25 25 0 01-3 2.4 26.6 26.6 0 015-6 11.7 11.7 0 013.5-2 6 6 0 014 0z" fill="#fdd68b"/><path d="M285.6 168.4a32.5 32.5 0 00-5.6 3.4 25.2 25.2 0 00-4.5 4.6 48.8 48.8 0 00-6.2 11.5 26.8 26.8 0 015.1-12.4 20.2 20.2 0 015-4.5 18.8 18.8 0 016.2-2.6z" fill="#fdd68b"/><path d="M284.1 170.7a9 9 0 00-4.4 2 24.9 24.9 0 00-3.5 3.5 49.2 49.2 0 00-3 4c-1 1.4-2 2.7-2.8 4.2a17 17 0 011.8-4.8 24.3 24.3 0 013-4.2 17.3 17.3 0 013.9-3.5 7.1 7.1 0 015-1.2z" fill="#fdd68b"/><path d="M286 169.6a35.8 35.8 0 00-4.3 3.2q-2 1.7-3.9 3.7l-3.7 4-3.7 4a42.7 42.7 0 013-4.6 40.5 40.5 0 013.4-4.3 27.9 27.9 0 014.2-3.6 15.8 15.8 0 015-2.4z" fill="#fdd68b"/><path d="M286.4 170.7a56.5 56.5 0 00-5.8 5.6 16.2 16.2 0 00-3.7 7 8 8 0 01.4-4.2 12.4 12.4 0 012.2-3.6 16.5 16.5 0 013.2-2.8 14.9 14.9 0 013.7-2z" fill="#fdd68b"/><path d="M288 171a43.4 43.4 0 00-6 5.7 27.3 27.3 0 00-2.5 3.3 37.3 37.3 0 00-2 3.7 11.4 11.4 0 011-4.2 15 15 0 012.4-3.6 16.4 16.4 0 013.2-2.9 13.9 13.9 0 013.8-2z" fill="#fdd68b"/><path d="M288.7 171.5a53.8 53.8 0 00-4.2 5.1l-3.8 5.5a13 13 0 011-3.3 16.2 16.2 0 011.7-3 14.6 14.6 0 012.3-2.5 9.9 9.9 0 013-1.8z" fill="#fdd68b"/><path d="M289.8 172.6a18.9 18.9 0 00-3.5 3c-1 1.1-2 2.3-3.3 3.5a8.4 8.4 0 01.8-2.4 9.4 9.4 0 011.5-2 7.4 7.4 0 012-1.5 4.7 4.7 0 012.5-.6z" fill="#fdd68b"/><path d="M375.6 170.7l9.7 4.4a70.1 70.1 0 009.9 3.8 47.7 47.7 0 005.1 1.2l2.6.4 2.7.3c3.5.4 7 .7 10.5.8a206.5 206.5 0 0021.3-.4l10.6-.8 10.6-1a206.4 206.4 0 01-42.6 3.4c-3.5 0-7-.4-10.6-.8l-2.7-.4-2.6-.4a36.4 36.4 0 01-5.2-1.3 69.3 69.3 0 01-10-4.2l-9.3-5z" fill="#fff"/><path d="M451.4 222.2c.6 6.8.9 13.6 1.6 20.4s1.7 13.6 3 20.3a87.3 87.3 0 01-4.3-20.1 120.4 120.4 0 01-.3-20.7z" fill="#fdd68b"/><path d="M452.5 227.5a14.7 14.7 0 011 3.4l.2 3.5a59.6 59.6 0 00.8 6.8 53.2 53.2 0 001.6 6.7l2.2 6.6a40.5 40.5 0 01-3.2-6.2 33.2 33.2 0 01-2-6.8 35.5 35.5 0 01-.4-7 34.9 34.9 0 00-.2-7zM455.2 258l1.6 5a116.5 116.5 0 003.6 9.7l2 4.8a26.4 26.4 0 01-3-4.4 33.8 33.8 0 01-3.7-9.8 25 25 0 01-.5-5.3zM455.2 267.1c.7 3.3 1 6.7 1.9 9.8a13.4 13.4 0 002 4.3 11.4 11.4 0 003.7 3 8 8 0 01-4.5-2.4 11 11 0 01-2.5-4.5 21 21 0 01-.8-5.1 34.1 34.1 0 01.2-5z" fill="#fdd68b"/><path d="M450.3 199.3a39.8 39.8 0 011.8 5l1.6 5a41.2 41.2 0 002 4.8 32.2 32.2 0 002.6 4.6 14.9 14.9 0 01-3.6-4 22.8 22.8 0 01-2.3-5 41.7 41.7 0 01-1.3-5.1l-.9-5.3zM446.8 185.2a15.6 15.6 0 001 5c.6 1.7 1.2 3.3 2 4.9a43 43 0 002.4 4.5 13.3 13.3 0 003.4 3.9 9.1 9.1 0 01-4.3-3.3 22.8 22.8 0 01-2.8-4.6 24.6 24.6 0 01-1.7-5 10 10 0 010-5.4zM448.7 201.6a17.7 17.7 0 001.4 5.8 57 57 0 002.7 5.3 37.8 37.8 0 012.6 5.6 11.5 11.5 0 01.6 6.1 16.3 16.3 0 00-1.6-5.7c-.8-1.8-1.8-3.5-2.8-5.3a31.7 31.7 0 01-2.5-5.7 12.2 12.2 0 01-.4-6.1zM449.5 211.9l.8 5.6a62.1 62.1 0 002.6 10.8l2 5.3a28.4 28.4 0 01-4.9-10.3 30.4 30.4 0 01-.5-11.4zM453 246.2l4 8.5c.8 1.5 1.4 3 2 4.4a33.5 33.5 0 011.5 4.6 62.4 62.4 0 01-4.6-8.4 45.7 45.7 0 01-1.9-4.4 23.5 23.5 0 01-1-4.7zM458.6 187.5a12.8 12.8 0 008-3.4 27.6 27.6 0 005.5-6.9 44.5 44.5 0 003.6-8 36.3 36.3 0 002-8.8 25.1 25.1 0 01-1 9 34.3 34.3 0 01-3.5 8.5 24.1 24.1 0 01-6 7 13.9 13.9 0 01-4 2.1 10.2 10.2 0 01-4.6.5zM457.5 188.6a3.7 3.7 0 001.9.7 5.6 5.6 0 012 .8 15.2 15.2 0 013.4 2.8 17.4 17.4 0 012.4 3.5 10.6 10.6 0 011.3 4 28.7 28.7 0 00-2.2-3.5 37.3 37.3 0 00-2.6-3.1 25.7 25.7 0 00-2.9-2.8 6 6 0 00-1.6-1 3.2 3.2 0 01-1.7-1.4zM461 194.3a12.3 12.3 0 011.8 1.7 11.3 11.3 0 011.5 2 6.8 6.8 0 01.8 5l-1-2.2-1-2.1-1.2-2.1a12.1 12.1 0 01-1-2.3zM260.6 321.5a66 66 0 0011.4 18.8c3 3.3 10.2 7.1 14.7 6.5a63 63 0 00-5.9-17.2c-.6-1.2-1.5-4-2-3.6a9 9 0 01-6.5 1.3c-3.5-.4-7.4-.7-11.7-5.8z" fill="#fff"/><path d="M264.3 327.7a9.3 9.3 0 002 3l2.5 2.7a33.1 33.1 0 012.4 3l2.3 2.8a32.9 32.9 0 0011.7 8.7 20.4 20.4 0 01-3.6-1.1 23.4 23.4 0 01-3.4-1.7 26.9 26.9 0 01-5.7-5 32.2 32.2 0 01-2.4-3l-1-1.5-1.1-1.4-2.2-3a16.6 16.6 0 01-1-1.7 4.6 4.6 0 01-.5-1.8z" fill="#fff"/><path d="M278.3 341.8c.1.8.7 1 1.3 1.5l1.6 1.2 1.7 1.2a14.8 14.8 0 011.7 1.4 6.7 6.7 0 01-2.2-.5 8 8 0 01-2-1 7.1 7.1 0 01-1.6-1.6 5 5 0 01-.6-1 1.3 1.3 0 010-1.2z" fill="#fff"/><path d="M279 325.9a5.8 5.8 0 011.4 2.7 6.9 6.9 0 010 3.1 10.3 10.3 0 01-1.2 2.9 12.2 12.2 0 01-1.8 2.4c.4-2 1.3-3.8 1.7-5.6a10.2 10.2 0 00.3-2.7 16 16 0 00-.5-2.8z" fill="#fdd68b"/><path d="M281.1 325a8.7 8.7 0 011 3.4 15.7 15.7 0 010 3.5 14 14 0 01-.8 3.4 7 7 0 01-2 3 17.6 17.6 0 001-3.3l.5-3.2a50.5 50.5 0 00.3-6.7z" fill="#fdd68b"/><path d="M283.3 348a5 5 0 01-2.7-.8 11.2 11.2 0 01-2.2-1.6 23.4 23.4 0 01-3.2-4.3 14 14 0 012 1.7l2 1.9 1.9 1.7a9.7 9.7 0 002.2 1.4zM286 348.8a9.4 9.4 0 01-3-2 7 7 0 01-2-3 32.5 32.5 0 012.7 2.3 14.6 14.6 0 012.4 2.7z" fill="#ea002d"/><path d="M278.3 343.7a22.5 22.5 0 014 2.9 43.6 43.6 0 013.8 3.4 14.9 14.9 0 01-4.4-2.7 23 23 0 01-3.4-3.6z" fill="#ea002d"/><path fill="#eaeaea" d="M338.4 432l11.1.3.9 3.8h-22.2l6.7-4.1h3.5z"/><path d="M291.7 371.2s.2 9.5 2 11.8 34 45.4 44.6 49c0 0-1-1-10.6 4.5s-26.4 20.4-36.4 32-19.8 14.3-19.8 14.3 10.6-48.6 9.9-57a69 69 0 012.3-24.8c2.3-7.9 6.6-22.9 5.7-25.7z" fill="#fff"/><path data-name="collar" d="M435.3 374.6s-7.3 12.7-17 21a143.1 143.1 0 01-36.7 22.7c-13 5.3-29.3 10.4-33.7 15.5 0 0 14.6 12.7 23.2 27.1s26.2 29.8 28.5 31.3c0 0 15.5-45 19.3-54.6s13.4-31.5 15.2-39.4 2.4-18 1.2-23.6z" fill="#fff"/><g><path fill="#fff" d="M273 437.6l154.4 22.8-112.1 252.2-61.8 4-14.7-273 34.3-6z"/><path d="M452.2 396.3c.3.6 55.3 18 88.4 28s68 25 72.6 28 24.4 10.1 34.6 61c7.6 16.8 6.6 23 7.6 28.7s6.6 30.7 6.6 37.3 10.8 100.9 9.3 120.7-356 12.6-356 12.6zM269.3 403.2s-88.5 18.1-103.7 26.8-27 8.1-34 12.7-25.4 37-32.6 68L55 700c-2.5 11.2 189.4 21.6 202 19 0 0-11-253.2-6.5-261.7s18.8-54.1 18.8-54.1z" fill="#020635"/><path d="M435.3 374.6l2-3s5.8 11 9.4 16 41.3 69 41.3 75c0 3.4-20.2 8.8-22.9 10.7s25.5 21.3 25.9 26.7-172 206.8-179.2 212.5 87.6-220 92.2-233 15.7-44 19.2-52.5 10-23.4 10.9-28.8 3.7-18.2 1.1-23.6M289.4 375.3s-16.3 16-20.1 27.9c0 0-65.6 44.5-71 52.2-2.2 3.4 17.2 9.5 17.2 9.5s-34.4 16-35.2 17.9 76.8 236.3 76.8 236.3 12.4-225.7 16.3-245.3 8-40.2 8-44.8-.3-18.4 1.5-25 7.7-26.8 6.5-29.4" fill="#020635"/><path d="M322.3 474.7s-27.9 40.1-34.4 51.8-13.9 52.8-13.9 52.8l-15.1 133.3 53.7-5.2 44.7-113.7s.3-61.1-.4-85c-.5-16.8-16.4-32-16.4-32s-6.7-8.1-18.2-2z" fill="#ea002d"/><path d="M350 435.7s-17.6-.7-19.9-.5-17.9 11.1-19.4 14.2 13.7 13.8 13.7 13.8-2.3 9.3-2 11.5c0 0 10-3 15.5 4.7 0 0 11.4-11.3 14.7-12.1s5.7-3.7 8.3-6.3a31.7 31.7 0 017-5s-12.4-16-17.9-20.3z" fill="#ea002d"/><g clip-path="url(#d)" fill="#ce0233"><path d="M316.3 456.4c-.2 0-.1.2-.3.2a28 28 0 0111.4-4.5 23.3 23.3 0 00-.2 3 21 21 0 01-1.3 4.7 23 23 0 01-3 5c-.2-1.4-2-2-2-3.7.2-1.3 1.1-2.5 1-3.9-1.5-.1-3.7.6-5.2.9a1.7 1.7 0 01-.4-1.7zM359.2 445.3c-2.8.6-4.6 3.1-7.8 3-2-.2-4.2-2.4-6.3-1.2a9.6 9.6 0 00-.6 4.2 7.5 7.5 0 01-.3 3.2c-.5 1.5-.7 2.4-2.4 2.5-.8 0-1.5-.6-2.2-.4-1.6.5-1 4.3-1.1 5.6a64 64 0 01-1.4 8.1 27.3 27.3 0 01-.7 3.9 23.1 23.1 0 00-1 2.6 10 10 0 012 1.8c.7.7.7 1.7 1.7 1.8s3.5-2.4 4.4-3a44.6 44.6 0 004.5-3.2 31 31 0 003.7-3.7c1.9-2.2 4.4-2.2 6.9-3.5 3-1.6 4.2-4.2 6.1-6.8 1-1.2 3-2.8 3-4.3 0-1.1-1.3-2.4-1.9-3.2l-3-3.7c-.7-.9-2.1-4-3.5-3.5 0-.1.1-.3-.1-.2z"/></g><path d="M321 479.8c-1 3.7-4 6.8-4.4 10.6 1.7-.8 3.3-2.7 4.8-4 2.7 9-4.1 15.4-6.3 23.8 4.5-2.6 11.1-8.4 12.1-13.7.5-2.8.6-8.8-.4-11.3-.6-1.6-4.8-5.5-6.2-5.4 0 1 .8.4.5 0zM337.8 483.8c2.9 2.3 3 6 4.7 9 1.9 3.4 5.2 6.3 7.4 9.3 1.4-6.6-5.6-17.2-12-18.3zM298.7 567.1c.1 22.5.5 44.4-4 66.6-2.1 11.3-2.8 23.5-11.1 31.5-3.2 3-6.7 7-10.2 9.6a70.9 70.9 0 014-24.7c3.1-10.3 4-21.3 6.8-31.7 3-11.6 8.5-25.2 8.4-37.1 0-4.6.7-12.4 6.1-14.2z" fill="#ce0233"/></g></g></svg>